<svg xmlns="http://www.w3.org/2000/svg" xmlns:xlink="http://www.w3.org/1999/xlink" width="100" zoomAndPan="magnify" viewBox="0 0 75 74.999997" height="100" preserveAspectRatio="xMidYMid meet" version="1.0"><defs><clipPath id="189d72708c"><path d="M 0 20 L 75 20 L 75 54.984375 L 0 54.984375 Z M 0 20 " clip-rule="nonzero"/></clipPath></defs><g clip-path="url(#189d72708c)"><path fill="#ffffff" d="M 59.15625 54.203125 L 73.972656 39.390625 C 75 38.363281 75 36.671875 73.972656 35.644531 L 59.15625 20.796875 C 58.128906 19.769531 56.441406 19.769531 55.414062 20.796875 C 54.386719 21.824219 54.386719 23.515625 55.414062 24.542969 L 65.71875 34.847656 L 2.652344 34.847656 C 1.191406 34.847656 0 36.042969 0 37.5 C 0 38.957031 1.191406 40.152344 2.652344 40.152344 L 65.6875 40.152344 L 55.378906 50.457031 C 54.851562 50.988281 54.617188 51.652344 54.617188 52.347656 C 54.617188 53.042969 54.882812 53.707031 55.378906 54.238281 C 56.441406 55.230469 58.128906 55.230469 59.15625 54.203125 Z M 59.15625 54.203125 " fill-opacity="1" fill-rule="nonzero"/></g></svg>