<svg xmlns="http://www.w3.org/2000/svg" xmlns:xlink="http://www.w3.org/1999/xlink" width="100" zoomAndPan="magnify" viewBox="0 0 75 74.999997" height="100" preserveAspectRatio="xMidYMid meet" version="1.0"><path fill="#2d9df9" d="M 75.007812 37.503906 C 75.007812 58.21875 58.214844 75.007812 37.503906 75.007812 C 16.792969 75.007812 0 58.21875 0 37.503906 C 0 16.792969 16.792969 0 37.503906 0 C 58.214844 0 75.007812 16.792969 75.007812 37.503906 " fill-opacity="1" fill-rule="nonzero"/><path fill="#000000" d="M 46.808594 10.535156 C 47.914062 10.535156 49.0625 11.195312 49.664062 12.175781 C 50.976562 14.324219 50.882812 17.121094 49.375 20.738281 C 48.761719 22.207031 48.015625 23.574219 47.175781 25.089844 C 47.125 25.179688 46.917969 25.535156 46.101562 26.914062 L 44.648438 29.371094 L 55.304688 29.402344 C 55.511719 29.40625 60.53125 29.496094 60.53125 33.792969 C 60.53125 34.761719 60.152344 35.59375 59.371094 36.335938 L 58.214844 37.433594 L 59.285156 38.617188 C 60 39.410156 60.28125 40.214844 60.164062 41.148438 C 60.035156 42.15625 59.574219 42.996094 58.820312 43.574219 L 57.707031 44.433594 L 58.386719 45.660156 C 58.761719 46.335938 58.882812 47.042969 58.75 47.820312 C 58.628906 48.550781 58.21875 49.175781 57.53125 49.675781 L 56.441406 50.472656 L 57.015625 51.691406 C 57.261719 52.214844 57.332031 52.738281 57.226562 53.292969 C 56.875 55.1875 55.496094 55.539062 54.0625 55.636719 L 54.019531 55.636719 C 53.945312 55.644531 53.875 55.648438 53.8125 55.652344 L 31.019531 55.652344 C 30.265625 55.652344 29.5625 55.503906 29.199219 55.234375 C 28.832031 54.960938 28.605469 54.441406 28.605469 53.390625 C 28.605469 51.96875 28.605469 37.027344 28.605469 33.082031 C 28.605469 32.058594 28.914062 31.71875 29.398438 31.261719 C 30.289062 30.425781 31.328125 29.519531 32.433594 28.554688 C 35.988281 25.453125 40.417969 21.59375 42.296875 17.804688 C 43.136719 16.109375 43.84375 14.339844 44.402344 12.539062 C 44.8125 11.210938 45.292969 10.734375 46.378906 10.566406 C 46.519531 10.546875 46.664062 10.535156 46.808594 10.535156 " fill-opacity="1" fill-rule="nonzero"/><path fill="#000000" d="M 25.722656 31.703125 C 25.984375 31.703125 26.226562 31.816406 26.414062 32.019531 C 26.601562 32.234375 26.699219 32.503906 26.699219 32.792969 L 26.699219 56.246094 C 26.699219 56.847656 26.261719 57.335938 25.722656 57.335938 L 17.355469 57.335938 C 17.089844 57.335938 16.847656 57.222656 16.660156 57.015625 C 16.476562 56.816406 16.375 56.542969 16.375 56.246094 L 16.375 32.789062 C 16.375 32.5 16.476562 32.222656 16.664062 32.019531 C 16.851562 31.8125 17.09375 31.703125 17.355469 31.703125 L 25.722656 31.703125 " fill-opacity="1" fill-rule="nonzero"/></svg>