<svg xmlns="http://www.w3.org/2000/svg" xmlns:xlink="http://www.w3.org/1999/xlink" width="100" zoomAndPan="magnify" viewBox="0 0 75 74.999997" height="100" preserveAspectRatio="xMidYMid meet" version="1.0"><path fill="#2d9df9" d="M 37.5 0 C 36.273438 0 35.046875 0.0585938 33.824219 0.179688 C 32.601562 0.300781 31.390625 0.480469 30.183594 0.71875 C 28.980469 0.960938 27.789062 1.257812 26.613281 1.613281 C 25.4375 1.972656 24.285156 2.382812 23.148438 2.855469 C 22.015625 3.324219 20.90625 3.847656 19.824219 4.429688 C 18.738281 5.007812 17.6875 5.636719 16.667969 6.320312 C 15.644531 7.003906 14.660156 7.734375 13.710938 8.511719 C 12.761719 9.292969 11.851562 10.113281 10.984375 10.984375 C 10.113281 11.851562 9.292969 12.761719 8.511719 13.710938 C 7.734375 14.660156 7.003906 15.644531 6.320312 16.667969 C 5.636719 17.6875 5.007812 18.738281 4.429688 19.824219 C 3.847656 20.90625 3.324219 22.015625 2.855469 23.148438 C 2.382812 24.285156 1.972656 25.4375 1.613281 26.613281 C 1.257812 27.789062 0.960938 28.980469 0.71875 30.183594 C 0.480469 31.390625 0.300781 32.601562 0.179688 33.824219 C 0.0585938 35.046875 0 36.273438 0 37.5 C 0 38.726562 0.0585938 39.953125 0.179688 41.175781 C 0.300781 42.398438 0.480469 43.609375 0.71875 44.816406 C 0.960938 46.019531 1.257812 47.210938 1.613281 48.386719 C 1.972656 49.5625 2.382812 50.714844 2.855469 51.851562 C 3.324219 52.984375 3.847656 54.09375 4.429688 55.175781 C 5.007812 56.261719 5.636719 57.3125 6.320312 58.332031 C 7.003906 59.355469 7.734375 60.339844 8.511719 61.289062 C 9.292969 62.238281 10.113281 63.148438 10.984375 64.015625 C 11.851562 64.886719 12.761719 65.707031 13.710938 66.488281 C 14.660156 67.265625 15.644531 67.996094 16.667969 68.679688 C 17.6875 69.363281 18.738281 69.992188 19.824219 70.570312 C 20.90625 71.152344 22.015625 71.675781 23.148438 72.144531 C 24.285156 72.617188 25.4375 73.027344 26.613281 73.386719 C 27.789062 73.742188 28.980469 74.039062 30.183594 74.28125 C 31.390625 74.519531 32.601562 74.699219 33.824219 74.820312 C 35.046875 74.941406 36.273438 75 37.5 75 C 38.726562 75 39.953125 74.941406 41.175781 74.820312 C 42.398438 74.699219 43.609375 74.519531 44.816406 74.28125 C 46.019531 74.039062 47.210938 73.742188 48.386719 73.386719 C 49.5625 73.027344 50.714844 72.617188 51.851562 72.144531 C 52.984375 71.675781 54.09375 71.152344 55.175781 70.570312 C 56.261719 69.992188 57.3125 69.363281 58.332031 68.679688 C 59.355469 67.996094 60.339844 67.265625 61.289062 66.488281 C 62.238281 65.707031 63.148438 64.886719 64.015625 64.015625 C 64.886719 63.148438 65.707031 62.238281 66.488281 61.289062 C 67.265625 60.339844 67.996094 59.355469 68.679688 58.332031 C 69.363281 57.3125 69.992188 56.261719 70.570312 55.175781 C 71.152344 54.09375 71.675781 52.984375 72.144531 51.851562 C 72.617188 50.714844 73.027344 49.5625 73.386719 48.386719 C 73.742188 47.210938 74.039062 46.019531 74.28125 44.816406 C 74.519531 43.609375 74.699219 42.398438 74.820312 41.175781 C 74.941406 39.953125 75 38.726562 75 37.5 C 75 36.273438 74.941406 35.046875 74.820312 33.824219 C 74.699219 32.601562 74.519531 31.390625 74.28125 30.183594 C 74.039062 28.980469 73.742188 27.789062 73.386719 26.613281 C 73.027344 25.4375 72.617188 24.285156 72.144531 23.148438 C 71.675781 22.015625 71.152344 20.90625 70.570312 19.824219 C 69.992188 18.738281 69.363281 17.6875 68.679688 16.667969 C 67.996094 15.644531 67.265625 14.660156 66.488281 13.710938 C 65.707031 12.761719 64.886719 11.851562 64.015625 10.984375 C 63.148438 10.113281 62.238281 9.292969 61.289062 8.511719 C 60.339844 7.734375 59.355469 7.003906 58.332031 6.320312 C 57.3125 5.636719 56.261719 5.007812 55.175781 4.429688 C 54.09375 3.847656 52.984375 3.324219 51.851562 2.855469 C 50.714844 2.382812 49.5625 1.972656 48.386719 1.613281 C 47.210938 1.257812 46.019531 0.960938 44.816406 0.71875 C 43.609375 0.480469 42.398438 0.300781 41.175781 0.179688 C 39.953125 0.0585938 38.726562 0 37.5 0 Z M 59.660156 51.136719 C 59.660156 51.695312 59.601562 52.25 59.492188 52.796875 C 59.382812 53.347656 59.222656 53.878906 59.007812 54.398438 C 58.792969 54.914062 58.53125 55.402344 58.21875 55.871094 C 57.910156 56.335938 57.554688 56.765625 57.160156 57.160156 C 56.765625 57.554688 56.335938 57.910156 55.871094 58.21875 C 55.402344 58.53125 54.914062 58.792969 54.398438 59.007812 C 53.878906 59.222656 53.347656 59.382812 52.796875 59.492188 C 52.25 59.601562 51.695312 59.660156 51.136719 59.660156 L 23.863281 59.660156 C 23.304688 59.660156 22.75 59.601562 22.203125 59.492188 C 21.652344 59.382812 21.121094 59.222656 20.601562 59.007812 C 20.085938 58.792969 19.597656 58.53125 19.128906 58.21875 C 18.664062 57.910156 18.234375 57.554688 17.839844 57.160156 C 17.445312 56.765625 17.089844 56.335938 16.78125 55.871094 C 16.46875 55.402344 16.207031 54.914062 15.992188 54.398438 C 15.777344 53.878906 15.617188 53.347656 15.507812 52.796875 C 15.398438 52.25 15.339844 51.695312 15.339844 51.136719 L 15.339844 23.863281 C 15.339844 23.304688 15.398438 22.75 15.507812 22.203125 C 15.617188 21.652344 15.777344 21.121094 15.992188 20.601562 C 16.207031 20.085938 16.46875 19.597656 16.78125 19.128906 C 17.089844 18.664062 17.445312 18.234375 17.839844 17.839844 C 18.234375 17.445312 18.664062 17.089844 19.128906 16.78125 C 19.597656 16.46875 20.085938 16.207031 20.601562 15.992188 C 21.121094 15.777344 21.652344 15.617188 22.203125 15.507812 C 22.75 15.398438 23.304688 15.339844 23.863281 15.339844 L 51.136719 15.339844 C 51.695312 15.339844 52.25 15.398438 52.796875 15.507812 C 53.347656 15.617188 53.878906 15.777344 54.398438 15.992188 C 54.914062 16.207031 55.402344 16.46875 55.871094 16.78125 C 56.335938 17.089844 56.765625 17.445312 57.160156 17.839844 C 57.554688 18.234375 57.910156 18.664062 58.21875 19.128906 C 58.53125 19.597656 58.792969 20.085938 59.007812 20.601562 C 59.222656 21.121094 59.382812 21.652344 59.492188 22.203125 C 59.601562 22.75 59.660156 23.304688 59.660156 23.863281 Z M 59.660156 51.136719 " fill-opacity="1" fill-rule="nonzero"/><path fill="#2d9df9" d="M 51.136719 18.75 L 23.863281 18.75 C 23.527344 18.75 23.195312 18.785156 22.867188 18.847656 C 22.539062 18.914062 22.21875 19.011719 21.90625 19.140625 C 21.597656 19.269531 21.304688 19.425781 21.023438 19.613281 C 20.746094 19.800781 20.488281 20.011719 20.25 20.25 C 20.011719 20.488281 19.800781 20.746094 19.613281 21.023438 C 19.425781 21.304688 19.269531 21.597656 19.140625 21.90625 C 19.011719 22.21875 18.914062 22.539062 18.847656 22.867188 C 18.785156 23.195312 18.75 23.527344 18.75 23.863281 L 18.75 51.136719 C 18.75 51.472656 18.785156 51.804688 18.847656 52.132812 C 18.914062 52.460938 19.011719 52.78125 19.140625 53.09375 C 19.269531 53.402344 19.425781 53.695312 19.613281 53.976562 C 19.800781 54.253906 20.011719 54.511719 20.25 54.75 C 20.488281 54.988281 20.746094 55.199219 21.023438 55.386719 C 21.304688 55.574219 21.597656 55.730469 21.90625 55.859375 C 22.21875 55.988281 22.539062 56.085938 22.867188 56.152344 C 23.195312 56.214844 23.527344 56.25 23.863281 56.25 L 51.136719 56.25 C 51.472656 56.25 51.804688 56.214844 52.132812 56.152344 C 52.460938 56.085938 52.78125 55.988281 53.09375 55.859375 C 53.402344 55.730469 53.695312 55.574219 53.976562 55.386719 C 54.253906 55.199219 54.511719 54.988281 54.75 54.75 C 54.988281 54.511719 55.199219 54.253906 55.386719 53.976562 C 55.574219 53.695312 55.730469 53.402344 55.859375 53.09375 C 55.988281 52.78125 56.085938 52.460938 56.152344 52.132812 C 56.214844 51.804688 56.25 51.472656 56.25 51.136719 L 56.25 23.863281 C 56.25 23.527344 56.214844 23.195312 56.152344 22.867188 C 56.085938 22.539062 55.988281 22.21875 55.859375 21.90625 C 55.730469 21.597656 55.574219 21.304688 55.386719 21.023438 C 55.199219 20.746094 54.988281 20.488281 54.75 20.25 C 54.511719 20.011719 54.253906 19.800781 53.976562 19.613281 C 53.695312 19.425781 53.402344 19.269531 53.09375 19.140625 C 52.78125 19.011719 52.460938 18.914062 52.132812 18.847656 C 51.804688 18.785156 51.472656 18.75 51.136719 18.75 Z M 52.839844 34.089844 C 52.839844 34.316406 52.796875 34.535156 52.710938 34.742188 C 52.625 34.953125 52.5 35.136719 52.339844 35.296875 C 52.183594 35.457031 51.996094 35.578125 51.789062 35.664062 C 51.578125 35.753906 51.363281 35.796875 51.136719 35.796875 C 50.910156 35.796875 50.691406 35.753906 50.484375 35.664062 C 50.273438 35.578125 50.089844 35.457031 49.929688 35.296875 C 49.769531 35.136719 49.648438 34.953125 49.5625 34.742188 C 49.476562 34.535156 49.433594 34.316406 49.433594 34.089844 L 49.433594 27.976562 L 27.976562 49.433594 L 34.089844 49.433594 C 34.316406 49.433594 34.535156 49.476562 34.742188 49.5625 C 34.953125 49.648438 35.136719 49.769531 35.296875 49.929688 C 35.457031 50.089844 35.578125 50.273438 35.664062 50.484375 C 35.753906 50.691406 35.796875 50.910156 35.796875 51.136719 C 35.796875 51.363281 35.753906 51.578125 35.664062 51.789062 C 35.578125 51.996094 35.457031 52.183594 35.296875 52.339844 C 35.136719 52.5 34.953125 52.625 34.742188 52.710938 C 34.535156 52.796875 34.316406 52.839844 34.089844 52.839844 L 23.863281 52.839844 C 23.636719 52.839844 23.421875 52.796875 23.210938 52.710938 C 23.003906 52.621094 22.820312 52.5 22.660156 52.339844 C 22.5 52.179688 22.378906 51.996094 22.289062 51.789062 C 22.203125 51.578125 22.160156 51.363281 22.160156 51.136719 L 22.160156 40.910156 C 22.160156 40.683594 22.203125 40.464844 22.289062 40.257812 C 22.375 40.046875 22.5 39.863281 22.660156 39.703125 C 22.816406 39.542969 23.003906 39.421875 23.210938 39.335938 C 23.421875 39.246094 23.636719 39.203125 23.863281 39.203125 C 24.089844 39.203125 24.308594 39.246094 24.515625 39.335938 C 24.726562 39.421875 24.910156 39.542969 25.070312 39.703125 C 25.230469 39.863281 25.351562 40.046875 25.4375 40.257812 C 25.523438 40.464844 25.566406 40.683594 25.566406 40.910156 L 25.566406 47.023438 L 47.023438 25.566406 L 40.910156 25.566406 C 40.683594 25.566406 40.464844 25.523438 40.257812 25.4375 C 40.046875 25.351562 39.863281 25.230469 39.703125 25.070312 C 39.542969 24.910156 39.421875 24.726562 39.335938 24.515625 C 39.246094 24.308594 39.203125 24.089844 39.203125 23.863281 C 39.203125 23.636719 39.246094 23.421875 39.335938 23.210938 C 39.421875 23.003906 39.542969 22.816406 39.703125 22.660156 C 39.863281 22.5 40.046875 22.375 40.257812 22.289062 C 40.464844 22.203125 40.683594 22.160156 40.910156 22.160156 L 51.136719 22.160156 C 51.363281 22.160156 51.578125 22.203125 51.789062 22.289062 C 51.996094 22.378906 52.179688 22.5 52.339844 22.660156 C 52.5 22.820312 52.621094 23.003906 52.710938 23.210938 C 52.796875 23.421875 52.839844 23.636719 52.839844 23.863281 Z M 52.839844 34.089844 " fill-opacity="1" fill-rule="nonzero"/></svg>