<svg xmlns="http://www.w3.org/2000/svg" xmlns:xlink="http://www.w3.org/1999/xlink" width="100" zoomAndPan="magnify" viewBox="0 0 75 74.999997" height="100" preserveAspectRatio="xMidYMid meet" version="1.0"><defs><clipPath id="d5715cd7e8"><path d="M 37.5 0 C 16.789062 0 0 16.789062 0 37.5 C 0 58.210938 16.789062 75 37.5 75 C 58.210938 75 75 58.210938 75 37.5 C 75 16.789062 58.210938 0 37.5 0 Z M 37.5 0 " clip-rule="nonzero"/></clipPath><clipPath id="d31f6b918d"><path d="M 21 33 L 56 33 L 56 56.570312 L 21 56.570312 Z M 21 33 " clip-rule="nonzero"/></clipPath></defs><g clip-path="url(#d5715cd7e8)"><rect x="-7.5" width="90" fill="#2d9df9" y="-7.5" height="89.999996" fill-opacity="1"/></g><g clip-path="url(#d31f6b918d)"><path fill="#000000" d="M 22.136719 47.507812 C 21.972656 47.667969 21.867188 47.882812 21.867188 48.15625 L 21.8125 53.550781 L 23.644531 53.550781 L 23.695312 50.421875 C 27.25 54.414062 32.308594 56.570312 37.476562 56.570312 C 40.167969 56.570312 42.859375 55.976562 45.390625 54.789062 C 53.035156 51.066406 57.230469 42.382812 55.292969 34.074219 C 55.1875 33.589844 54.703125 33.265625 54.21875 33.371094 C 53.734375 33.480469 53.410156 33.964844 53.519531 34.453125 C 55.1875 41.949219 51.417969 49.828125 44.527344 53.171875 C 37.855469 56.410156 29.671875 54.683594 24.882812 49.070312 L 28.21875 49.125 L 28.21875 47.292969 L 22.78125 47.238281 C 22.566406 47.238281 22.296875 47.292969 22.136719 47.507812 Z M 22.136719 47.507812 " fill-opacity="1" fill-rule="nonzero"/></g><path fill="#000000" d="M 19.5 42.4375 C 19.605469 42.867188 19.984375 43.136719 20.359375 43.136719 C 20.414062 43.136719 20.519531 43.136719 20.574219 43.136719 C 21.058594 43.027344 21.382812 42.542969 21.273438 42.058594 C 19.5 34.558594 23.265625 26.738281 30.15625 23.390625 C 36.832031 20.15625 44.90625 21.882812 49.75 27.382812 L 45.660156 27.382812 L 45.660156 29.21875 L 51.09375 29.21875 C 51.578125 29.21875 52.011719 28.785156 52.011719 28.300781 L 52.011719 22.851562 L 50.179688 22.851562 L 50.179688 25.226562 C 44.742188 19.832031 36.347656 18.320312 29.347656 21.71875 C 21.707031 25.386719 17.5625 34.128906 19.5 42.4375 Z M 19.5 42.4375 " fill-opacity="1" fill-rule="nonzero"/><path fill="#000000" d="M 37.152344 49.125 C 43.019531 49.125 47.8125 44.324219 47.8125 38.445312 C 47.8125 32.5625 43.019531 27.761719 37.152344 27.761719 C 31.285156 27.761719 26.496094 32.5625 26.496094 38.445312 C 26.496094 44.324219 31.285156 49.125 37.152344 49.125 Z M 38.875 39.628906 L 36.292969 39.089844 L 35.054688 38.820312 L 34.839844 38.765625 L 34.730469 38.714844 C 33.492188 38.066406 32.847656 37.257812 32.847656 36.339844 L 32.847656 36.230469 C 32.847656 34.613281 34.355469 33.320312 36.238281 33.320312 L 36.453125 33.320312 L 36.453125 32.078125 L 38.285156 32.078125 L 38.285156 33.320312 C 40.113281 33.371094 41.621094 34.667969 41.621094 36.230469 L 39.792969 36.230469 C 39.792969 35.636719 39.09375 35.152344 38.230469 35.152344 L 36.238281 35.152344 C 35.378906 35.152344 34.679688 35.636719 34.679688 36.230469 L 34.679688 36.339844 C 34.679688 36.394531 34.839844 36.664062 35.484375 37.039062 L 37.476562 37.417969 L 39.414062 37.796875 L 39.578125 37.851562 L 39.683594 37.902344 C 41.300781 38.714844 41.621094 39.683594 41.621094 40.332031 L 41.621094 40.441406 C 41.621094 42.058594 40.167969 43.351562 38.339844 43.351562 L 38.339844 44.703125 L 36.507812 44.703125 L 36.507812 43.40625 L 36.292969 43.40625 C 34.410156 43.40625 32.902344 42.113281 32.902344 40.492188 L 34.730469 40.492188 C 34.730469 41.085938 35.429688 41.574219 36.292969 41.574219 L 38.285156 41.574219 C 39.144531 41.574219 39.84375 41.085938 39.84375 40.492188 L 39.84375 40.386719 C 39.683594 40.332031 39.578125 40.007812 38.875 39.628906 Z M 38.875 39.628906 " fill-opacity="1" fill-rule="nonzero"/></svg>