<svg xmlns="http://www.w3.org/2000/svg" xmlns:xlink="http://www.w3.org/1999/xlink" width="100" zoomAndPan="magnify" viewBox="0 0 75 74.999997" height="100" preserveAspectRatio="xMidYMid meet" version="1.0"><defs><clipPath id="ebaaeb6739"><path d="M 37.5 0 C 16.789062 0 0 16.789062 0 37.5 C 0 58.210938 16.789062 75 37.5 75 C 58.210938 75 75 58.210938 75 37.5 C 75 16.789062 58.210938 0 37.5 0 Z M 37.5 0 " clip-rule="nonzero"/></clipPath><clipPath id="5c26904607"><path d="M 17.203125 23.976562 L 57.703125 23.976562 L 57.703125 50.976562 L 17.203125 50.976562 Z M 17.203125 23.976562 " clip-rule="nonzero"/></clipPath></defs><g clip-path="url(#ebaaeb6739)"><rect x="-7.5" width="90" fill="#2d9df9" y="-7.5" height="89.999996" fill-opacity="1"/></g><g clip-path="url(#5c26904607)"><path fill="#000000" d="M 54.753906 30.832031 L 49.101562 30.832031 C 48.984375 30.835938 48.886719 30.792969 48.8125 30.703125 C 48.734375 30.617188 48.703125 30.515625 48.722656 30.398438 L 49.503906 24.414062 C 49.523438 24.296875 49.496094 24.195312 49.417969 24.105469 C 49.339844 24.015625 49.246094 23.972656 49.128906 23.976562 L 24.0625 23.976562 C 23.859375 23.980469 23.664062 24.023438 23.472656 24.097656 C 23.285156 24.171875 23.113281 24.277344 22.960938 24.410156 C 22.808594 24.546875 22.683594 24.703125 22.589844 24.878906 C 22.492188 25.058594 22.429688 25.25 22.398438 25.449219 L 22.242188 26.652344 L 31.902344 26.652344 C 32.085938 26.648438 32.261719 26.683594 32.429688 26.757812 C 32.601562 26.832031 32.746094 26.9375 32.867188 27.074219 C 32.984375 27.214844 33.070312 27.371094 33.121094 27.550781 C 33.171875 27.726562 33.183594 27.90625 33.152344 28.085938 C 33.089844 28.488281 32.90625 28.828125 32.601562 29.097656 C 32.296875 29.367188 31.9375 29.507812 31.53125 29.519531 L 18.386719 29.519531 C 18.113281 29.523438 17.875 29.613281 17.667969 29.792969 C 17.464844 29.972656 17.34375 30.195312 17.304688 30.464844 L 17.304688 30.492188 C 17.285156 30.609375 17.292969 30.726562 17.324219 30.84375 C 17.359375 30.957031 17.414062 31.058594 17.492188 31.148438 C 17.570312 31.242188 17.664062 31.308594 17.773438 31.359375 C 17.882812 31.410156 17.996094 31.433594 18.117188 31.429688 L 31.289062 31.429688 C 31.472656 31.425781 31.648438 31.460938 31.816406 31.535156 C 31.984375 31.609375 32.128906 31.714844 32.25 31.851562 C 32.371094 31.992188 32.457031 32.148438 32.507812 32.328125 C 32.554688 32.503906 32.566406 32.683594 32.535156 32.863281 C 32.507812 33.058594 32.445312 33.242188 32.351562 33.417969 C 32.253906 33.589844 32.132812 33.742188 31.984375 33.875 C 31.835938 34.003906 31.671875 34.109375 31.488281 34.179688 C 31.300781 34.253906 31.113281 34.292969 30.914062 34.296875 L 21.144531 34.296875 C 20.875 34.304688 20.644531 34.394531 20.441406 34.574219 C 20.242188 34.75 20.125 34.96875 20.082031 35.234375 L 20.082031 35.261719 C 20.066406 35.378906 20.070312 35.496094 20.105469 35.609375 C 20.136719 35.726562 20.191406 35.828125 20.269531 35.917969 C 20.347656 36.007812 20.441406 36.078125 20.550781 36.128906 C 20.660156 36.175781 20.773438 36.199219 20.894531 36.199219 L 30.667969 36.199219 C 30.851562 36.195312 31.023438 36.230469 31.191406 36.304688 C 31.355469 36.378906 31.5 36.484375 31.617188 36.625 C 31.738281 36.761719 31.820312 36.917969 31.871094 37.09375 C 31.921875 37.265625 31.933594 37.445312 31.902344 37.625 C 31.875 37.820312 31.8125 38.003906 31.71875 38.179688 C 31.625 38.351562 31.5 38.503906 31.351562 38.636719 C 31.203125 38.765625 31.039062 38.867188 30.855469 38.941406 C 30.671875 39.015625 30.480469 39.050781 30.28125 39.058594 L 19.84375 39.058594 C 19.574219 39.066406 19.34375 39.15625 19.144531 39.332031 C 18.941406 39.511719 18.824219 39.730469 18.78125 39.996094 C 18.765625 40.113281 18.769531 40.230469 18.804688 40.34375 C 18.835938 40.460938 18.890625 40.5625 18.96875 40.652344 C 19.046875 40.742188 19.140625 40.8125 19.25 40.863281 C 19.359375 40.910156 19.476562 40.933594 19.59375 40.933594 L 20.375 40.933594 L 19.90625 44.574219 C 19.875 44.761719 19.886719 44.945312 19.9375 45.128906 C 19.988281 45.308594 20.078125 45.472656 20.199219 45.613281 C 20.324219 45.757812 20.472656 45.867188 20.648438 45.941406 C 20.820312 46.019531 21 46.054688 21.1875 46.046875 L 23.175781 46.046875 C 22.816406 48.789062 24.753906 51.011719 27.492188 51.011719 C 30.234375 51.011719 32.746094 48.789062 33.105469 46.046875 L 43.484375 46.046875 C 43.125 48.789062 45.0625 51.011719 47.808594 51.011719 C 50.554688 51.011719 53.0625 48.789062 53.417969 46.046875 L 56.179688 46.046875 C 56.304688 46.042969 56.414062 46 56.507812 45.917969 C 56.601562 45.832031 56.65625 45.730469 56.671875 45.605469 L 57.714844 37.605469 Z M 31.105469 46.144531 C 31.035156 46.535156 30.902344 46.898438 30.710938 47.242188 C 30.515625 47.585938 30.269531 47.886719 29.976562 48.148438 C 29.679688 48.410156 29.351562 48.617188 28.984375 48.765625 C 28.621094 48.917969 28.242188 49.003906 27.847656 49.023438 C 27.652344 49.035156 27.457031 49.027344 27.261719 48.992188 C 27.066406 48.960938 26.878906 48.90625 26.699219 48.828125 C 26.515625 48.753906 26.34375 48.65625 26.183594 48.542969 C 26.027344 48.425781 25.882812 48.292969 25.75 48.144531 C 25.621094 47.996094 25.511719 47.835938 25.417969 47.660156 C 25.328125 47.488281 25.253906 47.304688 25.207031 47.113281 C 25.15625 46.925781 25.128906 46.730469 25.121094 46.535156 C 25.117188 46.335938 25.132812 46.140625 25.171875 45.949219 C 25.242188 45.5625 25.375 45.195312 25.566406 44.855469 C 25.757812 44.511719 26.003906 44.210938 26.296875 43.949219 C 26.589844 43.6875 26.917969 43.480469 27.28125 43.332031 C 27.644531 43.179688 28.023438 43.09375 28.414062 43.070312 C 28.613281 43.054688 28.808594 43.066406 29.003906 43.097656 C 29.199219 43.128906 29.386719 43.183594 29.570312 43.257812 C 29.753906 43.335938 29.925781 43.429688 30.085938 43.546875 C 30.246094 43.660156 30.390625 43.792969 30.523438 43.941406 C 30.652344 44.089844 30.761719 44.253906 30.855469 44.425781 C 30.949219 44.601562 31.019531 44.785156 31.070312 44.976562 C 31.121094 45.167969 31.148438 45.359375 31.15625 45.558594 C 31.160156 45.757812 31.144531 45.953125 31.105469 46.144531 Z M 51.414062 46.144531 C 51.34375 46.53125 51.210938 46.898438 51.019531 47.238281 C 50.828125 47.582031 50.582031 47.882812 50.289062 48.144531 C 49.996094 48.40625 49.667969 48.613281 49.304688 48.761719 C 48.941406 48.914062 48.5625 49 48.171875 49.023438 C 47.972656 49.035156 47.777344 49.027344 47.582031 48.992188 C 47.390625 48.960938 47.203125 48.90625 47.019531 48.828125 C 46.839844 48.753906 46.667969 48.65625 46.507812 48.542969 C 46.347656 48.425781 46.203125 48.292969 46.074219 48.144531 C 45.945312 47.996094 45.832031 47.835938 45.742188 47.660156 C 45.648438 47.488281 45.578125 47.304688 45.527344 47.113281 C 45.476562 46.925781 45.449219 46.730469 45.445312 46.535156 C 45.4375 46.335938 45.453125 46.140625 45.492188 45.949219 C 45.5625 45.5625 45.695312 45.195312 45.886719 44.855469 C 46.082031 44.511719 46.324219 44.210938 46.617188 43.949219 C 46.914062 43.6875 47.242188 43.480469 47.605469 43.332031 C 47.96875 43.179688 48.34375 43.09375 48.738281 43.070312 C 48.933594 43.058594 49.128906 43.066406 49.324219 43.101562 C 49.519531 43.132812 49.707031 43.1875 49.886719 43.265625 C 50.070312 43.339844 50.242188 43.4375 50.402344 43.550781 C 50.5625 43.667969 50.707031 43.800781 50.835938 43.949219 C 50.964844 44.097656 51.074219 44.257812 51.167969 44.433594 C 51.257812 44.605469 51.332031 44.789062 51.378906 44.980469 C 51.429688 45.167969 51.457031 45.363281 51.464844 45.5625 C 51.46875 45.757812 51.453125 45.953125 51.414062 46.144531 Z M 47.8125 37.613281 L 48.375 33.289062 L 53.457031 33.289062 L 55.40625 37.632812 Z M 47.8125 37.613281 " fill-opacity="1" fill-rule="nonzero"/></g></svg>