<svg xmlns="http://www.w3.org/2000/svg" xmlns:xlink="http://www.w3.org/1999/xlink" width="100" zoomAndPan="magnify" viewBox="0 0 75 74.999997" height="100" preserveAspectRatio="xMidYMid meet" version="1.0"><path fill="#028ae2" d="M 21.148438 71.257812 C 22.511719 69.207031 23.808594 66.980469 25.042969 64.566406 C 23.3125 66.8125 21.667969 68.855469 20.097656 70.726562 C 20.445312 70.90625 20.796875 71.085938 21.148438 71.257812 Z M 49.144531 31.550781 C 49.789062 44.570312 47.171875 55.796875 33.425781 58.339844 C 33.488281 57.960938 33.511719 57.574219 33.488281 57.183594 C 37.011719 55.839844 42.894531 50.378906 43.367188 45.59375 C 42.191406 51.222656 35.429688 54.980469 33.214844 55.875 C 33.066406 55.464844 32.851562 55.046875 32.5625 54.628906 C 43.261719 47.988281 41.765625 37.035156 41.691406 35.6875 C 41.546875 38.292969 40.5625 43.164062 38.035156 46.585938 C 36.355469 48.851562 32.71875 51.207031 30.460938 52.535156 C 27.730469 50.496094 25.042969 49.941406 21.890625 51.542969 L 21.890625 51.53125 C 21.890625 51.53125 18.757812 21.359375 53.183594 16.660156 C 53.183594 16.660156 48.621094 21.019531 49.144531 31.550781 Z M 37.5 0 C 16.789062 0 0 16.789062 0 37.5 C 0 48.273438 4.542969 57.984375 11.816406 64.824219 C 13.011719 63.007812 14.210938 61.046875 15.421875 58.929688 C 15.421875 58.929688 21.183594 50.507812 27.953125 54.753906 C 34.726562 59 31.496094 63.230469 29.71875 66.066406 C 28.179688 68.523438 26.617188 70.789062 25.023438 72.875 C 28.925781 74.25 33.125 75 37.5 75 C 58.210938 75 75 58.210938 75 37.5 C 75 16.789062 58.210938 0 37.5 0 " fill-opacity="1" fill-rule="evenodd"/></svg>