<svg xmlns="http://www.w3.org/2000/svg" xmlns:xlink="http://www.w3.org/1999/xlink" width="100" zoomAndPan="magnify" viewBox="0 0 75 74.999997" height="100" preserveAspectRatio="xMidYMid meet" version="1.0"><defs><clipPath id="4e9a1a18d8"><path d="M 44 14.265625 L 60 14.265625 L 60 60.765625 L 44 60.765625 Z M 44 14.265625 " clip-rule="nonzero"/></clipPath><clipPath id="caecba4307"><path d="M 23 14.265625 L 52 14.265625 L 52 60.765625 L 23 60.765625 Z M 23 14.265625 " clip-rule="nonzero"/></clipPath><clipPath id="54abb59ed0"><path d="M 15 14.265625 L 31 14.265625 L 31 60.765625 L 15 60.765625 Z M 15 14.265625 " clip-rule="nonzero"/></clipPath></defs><g clip-path="url(#4e9a1a18d8)"><path fill="#5271ff" d="M 53.757812 60.738281 L 59.539062 60.738281 C 58.835938 59.945312 58.171875 59.121094 57.542969 58.269531 C 56.914062 57.417969 56.324219 56.535156 55.773438 55.628906 C 55.226562 54.722656 54.71875 53.792969 54.253906 52.839844 C 53.789062 51.890625 53.371094 50.917969 52.996094 49.925781 C 52.617188 48.9375 52.289062 47.929688 52.003906 46.910156 C 51.71875 45.890625 51.480469 44.859375 51.292969 43.816406 C 51.101562 42.773438 50.957031 41.722656 50.863281 40.667969 C 50.765625 39.613281 50.71875 38.554688 50.71875 37.496094 C 50.722656 36.4375 50.769531 35.378906 50.867188 34.324219 C 50.964844 33.269531 51.109375 32.21875 51.300781 31.179688 C 51.492188 30.136719 51.730469 29.105469 52.019531 28.085938 C 52.304688 27.0625 52.636719 26.058594 53.011719 25.070312 C 53.390625 24.078125 53.8125 23.109375 54.277344 22.15625 C 54.742188 21.203125 55.25 20.277344 55.800781 19.371094 C 56.351562 18.464844 56.941406 17.585938 57.570312 16.734375 C 58.203125 15.882812 58.867188 15.058594 59.574219 14.269531 L 53.792969 14.269531 C 41.160156 27.144531 41.148438 47.84375 53.757812 60.738281 Z M 53.757812 60.738281 " fill-opacity="1" fill-rule="nonzero"/></g><g clip-path="url(#caecba4307)"><path fill="#5271ff" d="M 29.945312 50.691406 C 28.441406 54.402344 26.363281 57.75 23.703125 60.738281 L 51.289062 60.738281 C 50.585938 59.945312 49.917969 59.121094 49.289062 58.269531 C 48.660156 57.417969 48.070312 56.535156 47.523438 55.628906 C 46.972656 54.722656 46.46875 53.792969 46.003906 52.84375 C 45.539062 51.890625 45.117188 50.917969 44.742188 49.925781 C 44.367188 48.9375 44.035156 47.929688 43.75 46.910156 C 43.46875 45.890625 43.230469 44.859375 43.039062 43.816406 C 42.847656 42.773438 42.703125 41.726562 42.609375 40.667969 C 42.515625 39.613281 42.464844 38.554688 42.46875 37.496094 C 42.46875 36.4375 42.515625 35.378906 42.613281 34.324219 C 42.710938 33.269531 42.855469 32.222656 43.046875 31.179688 C 43.238281 30.136719 43.476562 29.105469 43.765625 28.085938 C 44.050781 27.066406 44.382812 26.058594 44.757812 25.070312 C 45.136719 24.078125 45.558594 23.109375 46.023438 22.15625 C 46.488281 21.203125 46.996094 20.277344 47.546875 19.371094 C 48.097656 18.464844 48.6875 17.585938 49.316406 16.734375 C 49.945312 15.882812 50.613281 15.058594 51.320312 14.269531 L 23.671875 14.269531 C 26.347656 17.265625 28.4375 20.625 29.945312 24.347656 C 30.792969 26.441406 31.433594 28.59375 31.863281 30.8125 C 32.296875 33.027344 32.511719 35.261719 32.511719 37.519531 C 32.511719 39.777344 32.296875 42.015625 31.863281 44.230469 C 31.433594 46.445312 30.792969 48.601562 29.945312 50.691406 Z M 29.945312 50.691406 " fill-opacity="1" fill-rule="nonzero"/></g><g clip-path="url(#54abb59ed0)"><path fill="#5271ff" d="M 21.730469 50.691406 C 20.226562 54.398438 18.144531 57.75 15.488281 60.738281 L 21.234375 60.738281 C 33.84375 47.84375 33.832031 27.144531 21.195312 14.269531 L 15.449219 14.269531 C 18.125 17.265625 20.21875 20.625 21.730469 24.347656 C 23.445312 28.570312 24.300781 32.960938 24.296875 37.519531 C 24.300781 42.078125 23.445312 46.46875 21.730469 50.691406 Z M 21.730469 50.691406 " fill-opacity="1" fill-rule="nonzero"/></g><path fill="#5271ff" d="M 62.769531 38.859375 L 73.632812 38.859375 C 73.8125 38.859375 73.988281 38.824219 74.152344 38.753906 C 74.320312 38.6875 74.464844 38.589844 74.59375 38.460938 C 74.71875 38.332031 74.816406 38.1875 74.886719 38.019531 C 74.953125 37.855469 74.988281 37.683594 74.988281 37.503906 C 74.988281 37.324219 74.953125 37.148438 74.886719 36.984375 C 74.816406 36.816406 74.71875 36.671875 74.59375 36.542969 C 74.464844 36.417969 74.320312 36.320312 74.152344 36.25 C 73.988281 36.183594 73.8125 36.148438 73.632812 36.148438 L 62.769531 36.148438 C 62.589844 36.148438 62.414062 36.183594 62.25 36.25 C 62.082031 36.320312 61.9375 36.417969 61.808594 36.542969 C 61.683594 36.671875 61.585938 36.816406 61.515625 36.984375 C 61.445312 37.148438 61.414062 37.324219 61.414062 37.503906 C 61.414062 37.683594 61.445312 37.855469 61.515625 38.019531 C 61.585938 38.1875 61.683594 38.332031 61.808594 38.460938 C 61.9375 38.589844 62.082031 38.6875 62.25 38.753906 C 62.414062 38.824219 62.589844 38.859375 62.769531 38.859375 Z M 62.769531 38.859375 " fill-opacity="1" fill-rule="nonzero"/><path fill="#5271ff" d="M 64.371094 43.039062 L 56.234375 37.503906 L 64.371094 31.96875 Z M 64.371094 43.039062 " fill-opacity="1" fill-rule="nonzero"/><path fill="#5271ff" d="M 1.355469 38.859375 L 12.222656 38.859375 C 12.402344 38.859375 12.574219 38.824219 12.742188 38.753906 C 12.90625 38.6875 13.054688 38.589844 13.179688 38.460938 C 13.308594 38.332031 13.40625 38.1875 13.476562 38.019531 C 13.542969 37.855469 13.578125 37.683594 13.578125 37.503906 C 13.578125 37.324219 13.542969 37.148438 13.476562 36.984375 C 13.40625 36.816406 13.308594 36.671875 13.179688 36.542969 C 13.054688 36.417969 12.90625 36.320312 12.742188 36.25 C 12.574219 36.183594 12.402344 36.148438 12.222656 36.148438 L 1.355469 36.148438 C 1.175781 36.148438 1.003906 36.183594 0.839844 36.25 C 0.671875 36.320312 0.527344 36.417969 0.398438 36.542969 C 0.273438 36.671875 0.175781 36.816406 0.105469 36.984375 C 0.0351562 37.148438 0.00390625 37.324219 0.00390625 37.503906 C 0.00390625 37.683594 0.0351562 37.855469 0.105469 38.019531 C 0.175781 38.1875 0.273438 38.332031 0.398438 38.460938 C 0.527344 38.589844 0.671875 38.6875 0.839844 38.753906 C 1.003906 38.824219 1.175781 38.859375 1.355469 38.859375 Z M 1.355469 38.859375 " fill-opacity="1" fill-rule="nonzero"/><path fill="#5271ff" d="M 10.621094 43.039062 L 18.757812 37.503906 L 10.621094 31.96875 Z M 10.621094 43.039062 " fill-opacity="1" fill-rule="nonzero"/></svg>