<svg xmlns="http://www.w3.org/2000/svg" xmlns:xlink="http://www.w3.org/1999/xlink" width="100" zoomAndPan="magnify" viewBox="0 0 75 74.999997" height="100" preserveAspectRatio="xMidYMid meet" version="1.0"><defs><clipPath id="f24a55a7c0"><path d="M 12.210938 39 L 35 39 L 35 75 L 12.210938 75 Z M 12.210938 39 " clip-rule="nonzero"/></clipPath><clipPath id="7b58b373c9"><path d="M 40 39 L 62.460938 39 L 62.460938 75 L 40 75 Z M 40 39 " clip-rule="nonzero"/></clipPath></defs><g clip-path="url(#f24a55a7c0)"><path fill="#5271ff" d="M 33.1875 43.109375 C 33.007812 43.109375 32.742188 43.152344 32.484375 43.351562 L 30.972656 44.511719 C 30.492188 44.882812 29.917969 45.074219 29.320312 45.074219 C 27.960938 45.074219 26.800781 44.058594 26.621094 42.710938 L 26.371094 40.820312 C 26.296875 40.246094 25.804688 39.8125 25.226562 39.8125 C 25.128906 39.8125 25.027344 39.824219 24.925781 39.851562 L 23.699219 40.179688 L 12.21875 65.660156 L 21.695312 59.242188 L 26.820312 75.003906 L 34.5 44.222656 L 34.191406 43.691406 C 33.980469 43.328125 33.605469 43.109375 33.1875 43.109375 " fill-opacity="1" fill-rule="nonzero"/></g><path fill="#5271ff" d="M 39.078125 40.09375 C 38.558594 40.140625 38.03125 40.164062 37.5 40.164062 C 36.96875 40.164062 36.441406 40.140625 35.917969 40.09375 C 32.023438 39.746094 28.492188 38.125 25.742188 35.648438 C 22.179688 32.433594 19.9375 27.777344 19.9375 22.597656 C 19.9375 12.898438 27.800781 5.035156 37.5 5.035156 C 47.199219 5.035156 55.0625 12.898438 55.0625 22.597656 C 55.0625 27.777344 52.820312 32.433594 49.253906 35.648438 C 46.507812 38.125 42.976562 39.746094 39.078125 40.09375 Z M 43.429688 42.15625 L 44.945312 43.320312 C 45.167969 43.492188 45.425781 43.570312 45.679688 43.570312 C 46.253906 43.570312 46.800781 43.15625 46.886719 42.515625 L 47.136719 40.621094 C 47.3125 39.269531 48.472656 38.308594 49.769531 38.308594 C 50 38.308594 50.230469 38.335938 50.464844 38.398438 L 50.5 38.410156 L 52.304688 38.894531 C 52.414062 38.921875 52.519531 38.933594 52.625 38.933594 C 53.390625 38.933594 54.007812 38.199219 53.792969 37.40625 L 53.300781 35.5625 C 52.882812 34.007812 53.929688 32.445312 55.523438 32.234375 L 57.414062 31.988281 C 58.339844 31.863281 58.789062 30.785156 58.21875 30.042969 L 57.058594 28.53125 C 56.078125 27.253906 56.445312 25.40625 57.839844 24.605469 L 59.488281 23.652344 C 60.300781 23.183594 60.300781 22.015625 59.488281 21.546875 L 57.839844 20.59375 C 56.445312 19.792969 56.078125 17.945312 57.058594 16.667969 L 58.21875 15.15625 C 58.789062 14.414062 58.339844 13.335938 57.414062 13.210938 L 55.523438 12.964844 C 53.929688 12.753906 52.882812 11.191406 53.300781 9.636719 L 53.792969 7.792969 C 54.007812 7 53.390625 6.261719 52.625 6.261719 C 52.519531 6.261719 52.414062 6.277344 52.304688 6.304688 L 50.464844 6.800781 C 50.230469 6.863281 50 6.890625 49.769531 6.890625 C 48.472656 6.890625 47.3125 5.929688 47.136719 4.578125 L 46.886719 2.683594 C 46.800781 2.039062 46.253906 1.628906 45.679688 1.628906 C 45.425781 1.628906 45.167969 1.707031 44.945312 1.878906 L 43.429688 3.042969 C 42.945312 3.414062 42.375 3.59375 41.8125 3.59375 C 40.898438 3.59375 40 3.121094 39.503906 2.261719 L 38.550781 0.609375 C 38.316406 0.203125 37.910156 0.00390625 37.5 0.00390625 C 37.089844 0.00390625 36.679688 0.203125 36.449219 0.609375 L 35.492188 2.261719 C 34.996094 3.121094 34.101562 3.59375 33.1875 3.59375 C 32.625 3.59375 32.054688 3.414062 31.566406 3.042969 L 30.054688 1.878906 C 29.828125 1.707031 29.574219 1.628906 29.320312 1.628906 C 28.746094 1.628906 28.199219 2.039062 28.113281 2.683594 L 27.863281 4.578125 C 27.683594 5.929688 26.527344 6.890625 25.226562 6.890625 C 25 6.890625 24.769531 6.863281 24.535156 6.800781 L 22.691406 6.304688 C 22.585938 6.277344 22.476562 6.261719 22.375 6.261719 C 21.609375 6.261719 20.992188 7 21.207031 7.792969 L 21.699219 9.636719 C 22.117188 11.191406 21.070312 12.753906 19.476562 12.964844 L 17.585938 13.210938 C 16.660156 13.335938 16.210938 14.414062 16.78125 15.15625 L 17.941406 16.667969 C 18.921875 17.945312 18.554688 19.792969 17.160156 20.59375 L 15.507812 21.546875 C 14.699219 22.015625 14.699219 23.183594 15.507812 23.652344 L 17.160156 24.605469 C 18.554688 25.40625 18.921875 27.253906 17.941406 28.53125 L 16.78125 30.042969 C 16.210938 30.785156 16.660156 31.863281 17.585938 31.988281 L 19.476562 32.234375 C 21.070312 32.445312 22.117188 34.007812 21.699219 35.5625 L 21.207031 37.40625 C 20.992188 38.199219 21.609375 38.933594 22.375 38.933594 C 22.476562 38.933594 22.585938 38.921875 22.691406 38.894531 L 24.5 38.410156 L 24.535156 38.398438 C 24.769531 38.335938 25 38.308594 25.226562 38.308594 C 26.527344 38.308594 27.683594 39.269531 27.863281 40.621094 L 28.113281 42.515625 C 28.199219 43.15625 28.746094 43.570312 29.320312 43.570312 C 29.574219 43.570312 29.828125 43.492188 30.054688 43.320312 L 31.566406 42.15625 C 32.054688 41.785156 32.625 41.605469 33.1875 41.605469 C 33.902344 41.605469 34.605469 41.894531 35.117188 42.429688 C 35.257812 42.578125 35.386719 42.75 35.492188 42.9375 L 36.449219 44.589844 C 36.679688 44.996094 37.089844 45.195312 37.5 45.195312 C 37.910156 45.195312 38.316406 44.996094 38.550781 44.589844 L 39.503906 42.9375 C 39.613281 42.75 39.742188 42.578125 39.882812 42.429688 C 40.394531 41.894531 41.097656 41.605469 41.8125 41.605469 C 42.375 41.605469 42.945312 41.785156 43.429688 42.15625 " fill-opacity="1" fill-rule="nonzero"/><path fill="#5271ff" d="M 37.5 37.09375 C 29.507812 37.09375 23.003906 30.589844 23.003906 22.597656 C 23.003906 14.605469 29.507812 8.105469 37.5 8.105469 C 45.492188 8.105469 51.992188 14.605469 51.992188 22.597656 C 51.992188 30.589844 45.492188 37.09375 37.5 37.09375 Z M 37.5 6.601562 C 28.679688 6.601562 21.5 13.777344 21.5 22.597656 C 21.5 31.421875 28.679688 38.597656 37.5 38.597656 C 46.320312 38.597656 53.5 31.421875 53.5 22.597656 C 53.5 13.777344 46.320312 6.601562 37.5 6.601562 " fill-opacity="1" fill-rule="nonzero"/><path fill="#5271ff" d="M 42.933594 24.367188 C 42.816406 24.476562 42.765625 24.644531 42.789062 24.800781 L 43.816406 30.78125 C 43.886719 31.1875 43.464844 31.496094 43.097656 31.304688 L 37.726562 28.480469 C 37.585938 28.402344 37.414062 28.402344 37.269531 28.480469 L 31.898438 31.304688 C 31.535156 31.496094 31.113281 31.1875 31.183594 30.78125 L 32.210938 24.800781 C 32.234375 24.644531 32.179688 24.476562 32.066406 24.367188 L 27.722656 20.128906 C 27.429688 19.84375 27.589844 19.347656 27.996094 19.289062 L 34 18.417969 C 34.160156 18.394531 34.300781 18.289062 34.371094 18.144531 L 37.058594 12.703125 C 37.238281 12.335938 37.761719 12.335938 37.941406 12.703125 L 40.628906 18.144531 C 40.699219 18.289062 40.839844 18.394531 41 18.417969 L 47.003906 19.289062 C 47.410156 19.347656 47.570312 19.84375 47.277344 20.128906 L 42.933594 24.367188 " fill-opacity="1" fill-rule="nonzero"/><g clip-path="url(#7b58b373c9)"><path fill="#5271ff" d="M 51.296875 40.179688 L 50.074219 39.851562 C 49.972656 39.824219 49.871094 39.8125 49.769531 39.8125 C 49.195312 39.8125 48.703125 40.246094 48.628906 40.820312 L 48.378906 42.710938 C 48.199219 44.058594 47.039062 45.074219 45.679688 45.074219 C 45.078125 45.074219 44.507812 44.882812 44.027344 44.511719 L 42.515625 43.351562 C 42.257812 43.152344 41.988281 43.109375 41.8125 43.109375 C 41.394531 43.109375 41.015625 43.328125 40.808594 43.691406 L 40.5 44.222656 L 48.179688 75.003906 L 53.304688 59.242188 L 62.78125 65.660156 L 51.296875 40.179688 " fill-opacity="1" fill-rule="nonzero"/></g></svg>