<svg xmlns="http://www.w3.org/2000/svg" xmlns:xlink="http://www.w3.org/1999/xlink" width="100" zoomAndPan="magnify" viewBox="0 0 75 74.999997" height="100" preserveAspectRatio="xMidYMid meet" version="1.0"><defs><clipPath id="8a8926e495"><path d="M 37.5 0 C 16.789062 0 0 16.789062 0 37.5 C 0 58.210938 16.789062 75 37.5 75 C 58.210938 75 75 58.210938 75 37.5 C 75 16.789062 58.210938 0 37.5 0 Z M 37.5 0 " clip-rule="nonzero"/></clipPath><clipPath id="ac345be646"><path d="M 25.003906 18.777344 L 49.753906 18.777344 L 49.753906 56.277344 L 25.003906 56.277344 Z M 25.003906 18.777344 " clip-rule="nonzero"/></clipPath></defs><g clip-path="url(#8a8926e495)"><rect x="-7.5" width="90" fill="#2d9df9" y="-7.5" height="89.999996" fill-opacity="1"/></g><g clip-path="url(#ac345be646)"><path fill="#000000" d="M 32.269531 40.617188 L 32.269531 40.46875 C 32.269531 37.726562 33.738281 35.886719 36.449219 34.328125 C 39.835938 32.316406 40.707031 31.234375 40.707031 29.070312 C 40.707031 27.03125 39.089844 25.597656 36.851562 25.597656 C 34.859375 25.597656 33.515625 26.527344 32.742188 28.363281 C 32.023438 30 30.601562 30.832031 28.859375 30.832031 C 26.519531 30.832031 25.027344 29.371094 25.050781 27.105469 C 25.050781 26.023438 25.300781 25.042969 25.824219 24.085938 C 27.492188 20.917969 31.648438 18.75 37.296875 18.75 C 44.839844 18.75 49.789062 22.726562 49.789062 28.839844 C 49.789062 32.542969 48.074219 35.109375 44.417969 37.246094 C 41.171875 39.136719 40.429688 40.050781 39.933594 41.695312 C 39.910156 41.777344 39.886719 41.863281 39.863281 41.953125 C 39.289062 43.714844 38.121094 44.644531 36.203125 44.644531 C 33.8125 44.644531 32.269531 43.011719 32.269531 40.617188 Z M 31.621094 51.691406 C 31.621094 49.175781 33.714844 47.1875 36.328125 47.1875 C 38.914062 47.1875 41.03125 49.175781 41.03125 51.691406 C 41.03125 54.234375 38.914062 56.222656 36.328125 56.222656 C 33.714844 56.222656 31.621094 54.234375 31.621094 51.691406 Z M 31.621094 51.691406 " fill-opacity="1" fill-rule="nonzero"/></g></svg>