<svg xmlns="http://www.w3.org/2000/svg" xmlns:xlink="http://www.w3.org/1999/xlink" width="100" zoomAndPan="magnify" viewBox="0 0 75 74.999997" height="100" preserveAspectRatio="xMidYMid meet" version="1.0"><path fill="#2d9df9" d="M 75 37.5 C 75 38.726562 74.941406 39.953125 74.820312 41.175781 C 74.699219 42.398438 74.519531 43.609375 74.28125 44.816406 C 74.039062 46.019531 73.742188 47.210938 73.386719 48.386719 C 73.027344 49.5625 72.617188 50.714844 72.144531 51.851562 C 71.675781 52.984375 71.152344 54.09375 70.570312 55.175781 C 69.992188 56.261719 69.363281 57.3125 68.679688 58.332031 C 67.996094 59.355469 67.265625 60.339844 66.488281 61.289062 C 65.707031 62.238281 64.886719 63.148438 64.015625 64.015625 C 63.148438 64.886719 62.238281 65.707031 61.289062 66.488281 C 60.339844 67.265625 59.355469 67.996094 58.332031 68.679688 C 57.3125 69.363281 56.261719 69.992188 55.175781 70.570312 C 54.09375 71.152344 52.984375 71.675781 51.851562 72.144531 C 50.714844 72.617188 49.5625 73.027344 48.386719 73.386719 C 47.210938 73.742188 46.019531 74.039062 44.816406 74.28125 C 43.609375 74.519531 42.398438 74.699219 41.175781 74.820312 C 39.953125 74.941406 38.726562 75 37.5 75 C 36.273438 75 35.046875 74.941406 33.824219 74.820312 C 32.601562 74.699219 31.390625 74.519531 30.183594 74.28125 C 28.980469 74.039062 27.789062 73.742188 26.613281 73.386719 C 25.4375 73.027344 24.285156 72.617188 23.148438 72.144531 C 22.015625 71.675781 20.90625 71.152344 19.824219 70.570312 C 18.738281 69.992188 17.6875 69.363281 16.667969 68.679688 C 15.644531 67.996094 14.660156 67.265625 13.710938 66.488281 C 12.761719 65.707031 11.851562 64.886719 10.984375 64.015625 C 10.113281 63.148438 9.292969 62.238281 8.511719 61.289062 C 7.734375 60.339844 7.003906 59.355469 6.320312 58.332031 C 5.636719 57.3125 5.007812 56.261719 4.429688 55.175781 C 3.847656 54.09375 3.324219 52.984375 2.855469 51.851562 C 2.382812 50.714844 1.972656 49.5625 1.613281 48.386719 C 1.257812 47.210938 0.960938 46.019531 0.71875 44.816406 C 0.480469 43.609375 0.300781 42.398438 0.179688 41.175781 C 0.0585938 39.953125 0 38.726562 0 37.5 C 0 36.273438 0.0585938 35.046875 0.179688 33.824219 C 0.300781 32.601562 0.480469 31.390625 0.71875 30.183594 C 0.960938 28.980469 1.257812 27.789062 1.613281 26.613281 C 1.972656 25.4375 2.382812 24.285156 2.855469 23.148438 C 3.324219 22.015625 3.847656 20.90625 4.429688 19.824219 C 5.007812 18.738281 5.636719 17.6875 6.320312 16.667969 C 7.003906 15.644531 7.734375 14.660156 8.511719 13.710938 C 9.292969 12.761719 10.113281 11.851562 10.984375 10.984375 C 11.851562 10.113281 12.761719 9.292969 13.710938 8.511719 C 14.660156 7.734375 15.644531 7.003906 16.667969 6.320312 C 17.6875 5.636719 18.738281 5.007812 19.824219 4.429688 C 20.90625 3.847656 22.015625 3.324219 23.148438 2.855469 C 24.285156 2.382812 25.4375 1.972656 26.613281 1.613281 C 27.789062 1.257812 28.980469 0.960938 30.183594 0.71875 C 31.390625 0.480469 32.601562 0.300781 33.824219 0.179688 C 35.046875 0.0585938 36.273438 0 37.5 0 C 38.726562 0 39.953125 0.0585938 41.175781 0.179688 C 42.398438 0.300781 43.609375 0.480469 44.816406 0.71875 C 46.019531 0.960938 47.210938 1.257812 48.386719 1.613281 C 49.5625 1.972656 50.714844 2.382812 51.851562 2.855469 C 52.984375 3.324219 54.09375 3.847656 55.175781 4.429688 C 56.261719 5.007812 57.3125 5.636719 58.332031 6.320312 C 59.355469 7.003906 60.339844 7.734375 61.289062 8.511719 C 62.238281 9.292969 63.148438 10.113281 64.015625 10.984375 C 64.886719 11.851562 65.707031 12.761719 66.488281 13.710938 C 67.265625 14.660156 67.996094 15.644531 68.679688 16.667969 C 69.363281 17.6875 69.992188 18.738281 70.570312 19.824219 C 71.152344 20.90625 71.675781 22.015625 72.144531 23.148438 C 72.617188 24.285156 73.027344 25.4375 73.386719 26.613281 C 73.742188 27.789062 74.039062 28.980469 74.28125 30.183594 C 74.519531 31.390625 74.699219 32.601562 74.820312 33.824219 C 74.941406 35.046875 75 36.273438 75 37.5 Z M 75 37.5 " fill-opacity="1" fill-rule="nonzero"/><path fill="#000000" d="M 55.269531 60.074219 L 19.699219 60.074219 C 19.332031 60.074219 19.042969 59.785156 19.042969 59.417969 L 19.042969 15.59375 C 19.042969 15.226562 19.332031 14.933594 19.699219 14.933594 L 55.300781 14.933594 C 55.675781 14.933594 55.96875 15.226562 55.96875 15.59375 L 55.96875 59.449219 C 55.925781 59.785156 55.636719 60.074219 55.269531 60.074219 Z M 48.734375 55.707031 C 48.515625 55.707031 48.257812 55.5625 48.152344 55.34375 L 47.484375 54.09375 L 46.421875 55.199219 C 46.234375 55.375 45.984375 55.449219 45.722656 55.34375 C 45.472656 55.269531 45.316406 55.007812 45.316406 54.75 C 45.316406 54.675781 45.285156 53.800781 45.242188 52.8125 C 44.992188 53.46875 44.703125 54.238281 44.398438 54.9375 C 44.328125 55.15625 44.109375 55.34375 43.859375 55.34375 L 40.730469 55.519531 C 40.367188 55.519531 40.074219 55.269531 40.03125 54.9375 C 40 54.570312 40.292969 54.28125 40.625 54.238281 L 43.335938 54.09375 C 45.171875 49.289062 45.285156 49.289062 45.871094 49.390625 C 46.128906 49.433594 46.421875 49.695312 46.421875 50.058594 C 46.421875 50.351562 46.496094 51.820312 46.535156 53.144531 L 47.191406 52.445312 C 47.339844 52.300781 47.558594 52.214844 47.746094 52.257812 C 47.964844 52.300781 48.109375 52.402344 48.226562 52.589844 L 49.070312 54.238281 L 49.871094 54.132812 C 50.234375 54.09375 50.527344 54.3125 50.613281 54.675781 C 50.644531 55.050781 50.425781 55.34375 50.058594 55.417969 L 48.765625 55.59375 C 48.808594 55.707031 48.765625 55.707031 48.734375 55.707031 Z M 35.882812 55.007812 L 24.953125 55.007812 C 24.585938 55.007812 24.292969 54.71875 24.292969 54.351562 C 24.292969 53.988281 24.585938 53.6875 24.953125 53.6875 L 35.882812 53.6875 C 36.257812 53.6875 36.550781 53.988281 36.550781 54.351562 C 36.550781 54.71875 36.257812 55.007812 35.882812 55.007812 Z M 42.417969 49.914062 L 24.953125 49.914062 C 24.585938 49.914062 24.292969 49.609375 24.292969 49.246094 C 24.292969 48.882812 24.585938 48.589844 24.953125 48.589844 L 42.417969 48.589844 C 42.785156 48.589844 43.085938 48.882812 43.085938 49.246094 C 43.085938 49.609375 42.753906 49.914062 42.417969 49.914062 Z M 47.921875 44.804688 L 32.957031 44.804688 C 32.582031 44.804688 32.289062 44.515625 32.289062 44.148438 C 32.289062 43.785156 32.582031 43.484375 32.957031 43.484375 L 47.921875 43.484375 C 48.296875 43.484375 48.589844 43.785156 48.589844 44.148438 C 48.589844 44.515625 48.296875 44.804688 47.921875 44.804688 Z M 30.527344 44.804688 L 24.953125 44.804688 C 24.585938 44.804688 24.292969 44.515625 24.292969 44.148438 C 24.292969 43.785156 24.585938 43.484375 24.953125 43.484375 L 30.570312 43.484375 C 30.933594 43.484375 31.226562 43.785156 31.226562 44.148438 C 31.226562 44.515625 30.890625 44.804688 30.527344 44.804688 Z M 47.921875 39.742188 L 37.03125 39.742188 C 36.65625 39.742188 36.363281 39.449219 36.363281 39.085938 C 36.363281 38.71875 36.65625 38.417969 37.03125 38.417969 L 47.921875 38.417969 C 48.296875 38.417969 48.589844 38.71875 48.589844 39.085938 C 48.589844 39.449219 48.296875 39.742188 47.921875 39.742188 Z M 34.601562 39.742188 L 24.953125 39.742188 C 24.585938 39.742188 24.292969 39.449219 24.292969 39.085938 C 24.292969 38.71875 24.585938 38.417969 24.953125 38.417969 L 34.601562 38.417969 C 34.96875 38.417969 35.269531 38.71875 35.269531 39.085938 C 35.269531 39.449219 34.9375 39.742188 34.601562 39.742188 Z M 47.921875 34.644531 L 33.394531 34.644531 C 33.027344 34.644531 32.738281 34.34375 32.738281 33.976562 C 32.738281 33.613281 33.027344 33.320312 33.394531 33.320312 L 47.921875 33.320312 C 48.296875 33.320312 48.589844 33.613281 48.589844 33.976562 C 48.589844 34.34375 48.296875 34.644531 47.921875 34.644531 Z M 31.007812 34.644531 L 24.953125 34.644531 C 24.585938 34.644531 24.292969 34.34375 24.292969 33.976562 C 24.292969 33.613281 24.585938 33.320312 24.953125 33.320312 L 31.007812 33.320312 C 31.371094 33.320312 31.664062 33.613281 31.664062 33.976562 C 31.664062 34.34375 31.339844 34.644531 31.007812 34.644531 Z M 47.921875 29.539062 L 24.953125 29.539062 C 24.585938 29.539062 24.292969 29.246094 24.292969 28.878906 C 24.292969 28.515625 24.585938 28.214844 24.953125 28.214844 L 47.921875 28.214844 C 48.296875 28.214844 48.589844 28.515625 48.589844 28.878906 C 48.589844 29.246094 48.296875 29.539062 47.921875 29.539062 Z M 46.277344 25.242188 C 45.910156 25.242188 45.617188 24.953125 45.617188 24.585938 L 45.617188 22.378906 L 44.515625 24.292969 C 44.472656 24.324219 44.441406 24.398438 44.398438 24.441406 C 44.328125 24.511719 44.296875 24.542969 44.222656 24.585938 C 44.148438 24.617188 44.035156 24.660156 43.960938 24.660156 C 43.890625 24.660156 43.785156 24.660156 43.703125 24.585938 C 43.628906 24.542969 43.554688 24.511719 43.523438 24.441406 C 43.484375 24.398438 43.453125 24.367188 43.410156 24.292969 L 42.273438 22.347656 L 42.273438 24.585938 C 42.273438 24.953125 41.980469 25.242188 41.617188 25.242188 C 41.253906 25.242188 40.949219 24.953125 40.949219 24.585938 L 40.949219 19.960938 C 40.949219 19.667969 41.136719 19.40625 41.429688 19.332031 C 41.722656 19.261719 42.011719 19.375 42.167969 19.625 L 43.929688 22.679688 L 45.691406 19.625 C 45.839844 19.375 46.128906 19.261719 46.421875 19.332031 C 46.714844 19.40625 46.902344 19.667969 46.902344 19.960938 L 46.902344 24.585938 C 46.933594 24.953125 46.640625 25.242188 46.277344 25.242188 Z M 37.542969 21.648438 L 37.949219 21.648438 C 38.167969 21.648438 38.34375 21.460938 38.34375 21.242188 C 38.34375 21.023438 38.167969 20.84375 37.949219 20.84375 L 37.542969 20.84375 Z M 36.917969 25.023438 C 36.550781 25.023438 36.257812 24.734375 36.257812 24.367188 L 36.257812 20.148438 C 36.257812 19.769531 36.550781 19.480469 36.917969 19.480469 L 37.980469 19.480469 C 38.898438 19.480469 39.667969 20.25 39.667969 21.167969 C 39.667969 21.929688 39.136719 22.648438 38.425781 22.867188 L 39.480469 23.917969 C 39.742188 24.179688 39.742188 24.585938 39.480469 24.835938 C 39.335938 24.953125 39.15625 25.023438 39.011719 25.023438 C 38.867188 25.023438 38.679688 24.953125 38.5625 24.835938 L 37.574219 23.847656 L 37.574219 24.367188 C 37.542969 24.734375 37.28125 25.023438 36.917969 25.023438 Z M 32.550781 25.171875 C 30.964844 25.171875 29.652344 23.886719 29.652344 22.273438 C 29.652344 20.65625 30.933594 19.375 32.550781 19.375 C 34.164062 19.375 35.445312 20.65625 35.445312 22.273438 C 35.445312 23.886719 34.164062 25.171875 32.550781 25.171875 Z M 32.550781 20.6875 C 31.664062 20.6875 30.933594 21.429688 30.933594 22.304688 C 30.933594 23.191406 31.664062 23.917969 32.550781 23.917969 C 33.425781 23.917969 34.164062 23.191406 34.164062 22.304688 C 34.164062 21.386719 33.425781 20.6875 32.550781 20.6875 Z M 26.566406 25.171875 C 26.203125 25.171875 25.910156 24.878906 25.910156 24.511719 L 25.910156 20.03125 C 25.910156 19.667969 26.203125 19.375 26.566406 19.375 L 28.472656 19.375 C 28.839844 19.375 29.128906 19.667969 29.128906 20.03125 C 29.128906 20.398438 28.839844 20.6875 28.472656 20.6875 L 27.222656 20.6875 L 27.222656 21.605469 L 28.472656 21.605469 C 28.839844 21.605469 29.128906 21.90625 29.128906 22.273438 C 29.128906 22.636719 28.808594 22.929688 28.472656 22.929688 L 27.222656 22.929688 L 27.222656 24.542969 C 27.191406 24.878906 26.898438 25.171875 26.566406 25.171875 Z M 26.566406 25.171875 " fill-opacity="1" fill-rule="evenodd"/></svg>