<svg xmlns="http://www.w3.org/2000/svg" xmlns:xlink="http://www.w3.org/1999/xlink" width="100" zoomAndPan="magnify" viewBox="0 0 75 74.999997" height="100" preserveAspectRatio="xMidYMid meet" version="1.0"><path fill="#028ae2" d="M 48.945312 46.761719 C 49.511719 46.761719 50.089844 46.988281 50.535156 47.433594 L 60.578125 57.542969 L 60.578125 53.894531 C 60.578125 52.679688 61.609375 51.65625 62.820312 51.65625 C 64.039062 51.65625 65.058594 52.613281 65.058594 53.832031 L 65.058594 62.921875 C 65.058594 64.132812 64.039062 65.160156 62.820312 65.160156 L 53.859375 65.160156 C 52.648438 65.160156 51.621094 64.132812 51.621094 62.921875 C 51.621094 61.703125 52.648438 60.679688 53.859375 60.679688 L 57.507812 60.679688 L 47.402344 50.5625 C 46.503906 49.730469 46.570312 48.328125 47.402344 47.433594 C 47.8125 46.988281 48.378906 46.761719 48.945312 46.761719 Z M 25.933594 46.75 C 26.507812 46.742188 27.085938 46.949219 27.539062 47.367188 C 28.429688 48.199219 28.429688 49.605469 27.539062 50.503906 L 17.425781 60.617188 L 21.074219 60.617188 C 22.292969 60.617188 23.3125 61.636719 23.3125 62.855469 C 23.3125 64.066406 22.292969 65.09375 21.074219 65.09375 L 12.050781 65.09375 C 10.832031 65.09375 9.8125 64.066406 9.8125 62.855469 L 9.8125 53.832031 C 9.8125 52.613281 10.765625 51.65625 11.984375 51.65625 C 13.203125 51.65625 14.222656 52.679688 14.222656 53.894531 L 14.222656 57.542969 L 24.335938 47.433594 C 24.78125 46.980469 25.363281 46.761719 25.933594 46.75 Z M 37.5 32.886719 C 40.050781 32.886719 42.113281 34.949219 42.113281 37.5 C 42.113281 40.050781 40.050781 42.113281 37.5 42.113281 C 34.949219 42.113281 32.886719 40.050781 32.886719 37.5 C 32.886719 34.949219 34.949219 32.886719 37.5 32.886719 Z M 53.800781 9.839844 L 62.820312 9.839844 C 64.039062 9.839844 65.058594 10.867188 65.183594 12.085938 L 65.183594 21.039062 C 65.183594 22.257812 64.167969 23.277344 62.949219 23.277344 C 61.738281 23.277344 60.710938 22.257812 60.710938 21.039062 L 60.710938 17.390625 L 50.597656 27.503906 C 50.152344 27.953125 49.578125 28.144531 49 28.144531 C 48.417969 28.144531 47.847656 27.953125 47.402344 27.503906 C 46.503906 26.671875 46.503906 25.261719 47.402344 24.363281 L 57.449219 14.320312 L 53.800781 14.320312 C 52.582031 14.320312 51.554688 13.296875 51.554688 12.085938 C 51.554688 10.867188 52.582031 9.839844 53.800781 9.839844 Z M 12.050781 9.839844 L 21.066406 9.839844 C 22.285156 9.839844 23.25 10.800781 23.25 12.019531 C 23.25 13.238281 22.226562 14.253906 21.007812 14.253906 L 17.359375 14.253906 L 27.597656 24.363281 C 28.496094 25.195312 28.496094 26.605469 27.597656 27.503906 C 27.152344 27.953125 26.582031 28.144531 26 28.144531 C 25.421875 28.144531 24.847656 27.953125 24.402344 27.503906 L 14.289062 17.390625 L 14.289062 21.039062 C 14.289062 22.257812 13.261719 23.277344 12.050781 23.277344 C 10.832031 23.277344 9.8125 22.320312 9.8125 21.105469 L 9.8125 12.085938 C 9.8125 10.867188 10.832031 9.839844 12.050781 9.839844 Z M 5.492188 0 C 2.449219 0 0 2.449219 0 5.492188 L 0 69.507812 C 0 72.550781 2.449219 75 5.492188 75 L 69.507812 75 C 72.550781 75 75 72.550781 75 69.507812 L 75 5.492188 C 75 2.449219 72.550781 0 69.507812 0 L 5.492188 0 " fill-opacity="1" fill-rule="nonzero"/></svg>