<svg xmlns="http://www.w3.org/2000/svg" xmlns:xlink="http://www.w3.org/1999/xlink" width="100" zoomAndPan="magnify" viewBox="0 0 75 74.999997" height="100" preserveAspectRatio="xMidYMid meet" version="1.0"><path fill="#5271ff" d="M 63.46875 49.039062 L 63.46875 39.121094 L 41.410156 39.121094 L 50.300781 48.011719 L 54.335938 43.976562 L 54.335938 54.332031 L 43.976562 54.332031 L 48.011719 50.300781 L 39.40625 41.691406 L 39.40625 63.464844 L 49.042969 63.464844 L 37.503906 75.003906 L 25.964844 63.464844 L 36.167969 63.464844 L 36.167969 41.382812 L 27.125 50.425781 L 31.03125 54.332031 L 20.671875 54.332031 L 20.671875 43.976562 L 24.835938 48.140625 L 33.851562 39.121094 L 11.539062 39.121094 L 11.539062 49.039062 L 0 37.5 L 11.539062 25.960938 L 11.539062 35.882812 L 33.597656 35.882812 L 24.746094 27.03125 L 20.710938 31.066406 L 20.710938 20.707031 L 31.070312 20.707031 L 27.035156 24.742188 L 36.167969 33.878906 L 36.167969 11.539062 L 25.964844 11.539062 L 37.503906 0.00390625 L 49.042969 11.539062 L 39.40625 11.539062 L 39.40625 33.566406 L 48.140625 24.835938 L 43.976562 20.671875 L 54.335938 20.671875 L 54.335938 31.03125 L 50.429688 27.125 L 41.667969 35.882812 L 63.46875 35.882812 L 63.46875 25.960938 L 75.007812 37.5 L 63.46875 49.039062 " fill-opacity="1" fill-rule="nonzero"/></svg>